<svg width="512" height="512" viewBox="0 0 512 512" fill="none" xmlns="http://www.w3.org/2000/svg">
  <rect width="512" height="512" rx="112" fill="#080A0F"/>
  <rect x="28" y="28" width="456" height="456" rx="92" fill="url(#paint0_linear)"/>
  <rect x="58" y="58" width="396" height="396" rx="74" fill="#101722" fill-opacity="0.92"/>
  <path d="M144 334V178H184L228 254L272 178H312V334H271V250L244 297H212L185 250V334H144Z" fill="#F8FAFC"/>
  <path d="M329 339C312 339 297 336 284 329C271 322 260 313 252 302L279 274C286 283 294 290 303 295C312 300 321 302 331 302C340 302 347 300 352 297C357 294 360 289 360 283C360 278 358 274 355 271C352 268 347 265 341 262C335 259 328 257 320 254C310 251 301 247 292 242C283 237 276 230 271 222C266 214 263 204 263 191C263 177 266 165 273 155C280 145 289 137 302 132C314 126 328 123 344 123C359 123 373 126 385 132C397 138 407 146 414 156L388 184C382 176 376 170 369 166C362 162 354 160 345 160C337 160 331 162 326 165C321 168 319 173 319 178C319 183 321 187 324 190C327 193 332 196 338 199C344 202 351 204 359 207C370 210 380 214 389 219C398 224 405 231 411 239C416 247 419 258 419 271C419 292 411 309 395 321C379 333 357 339 329 339Z" fill="#22D3EE"/>
  <path d="M100 390H412" stroke="#F97316" stroke-width="24" stroke-linecap="round"/>
  <defs>
    <linearGradient id="paint0_linear" x1="76" y1="72" x2="442" y2="442" gradientUnits="userSpaceOnUse">
      <stop stop-color="#F97316"/>
      <stop offset="1" stop-color="#22D3EE"/>
    </linearGradient>
  </defs>
</svg>
