<?xml version="1.0" encoding="UTF-8" standalone="no"?><!DOCTYPE svg PUBLIC "-//W3C//DTD SVG 1.1//EN" "http://www.w3.org/Graphics/SVG/1.1/DTD/svg11.dtd"><svg width="100%" height="100%" viewBox="0 0 100 100" version="1.1" xmlns="http://www.w3.org/2000/svg" xmlns:xlink="http://www.w3.org/1999/xlink" xml:space="preserve" xmlns:serif="http://www.serif.com/" style="fill-rule:evenodd;clip-rule:evenodd;stroke-linejoin:round;stroke-miterlimit:2;"><g transform="matrix(1,0,0,0.93588,0,-0.311033)"><g transform="matrix(151.287199,0,0,151.287199,7.74123,105.533679)"><path d="M0.284,0.011c-0.026,0 -0.053,-0.001 -0.084,-0.004c-0.03,-0.003 -0.059,-0.007 -0.087,-0.011c-0.028,-0.004 -0.052,-0.008 -0.072,-0.012l0.009,-0.108c0.02,0.002 0.044,0.005 0.072,0.008c0.027,0.003 0.055,0.006 0.082,0.008c0.027,0.002 0.051,0.003 0.071,0.003c0.025,0 0.046,-0.003 0.062,-0.01c0.016,-0.007 0.028,-0.017 0.036,-0.03c0.008,-0.014 0.012,-0.031 0.012,-0.053c0,-0.017 -0.004,-0.031 -0.011,-0.042c-0.007,-0.01 -0.02,-0.019 -0.038,-0.025c-0.018,-0.006 -0.043,-0.013 -0.075,-0.018c-0.04,-0.007 -0.074,-0.016 -0.103,-0.026c-0.028,-0.01 -0.052,-0.023 -0.07,-0.038c-0.018,-0.015 -0.031,-0.034 -0.039,-0.058c-0.008,-0.023 -0.012,-0.051 -0.012,-0.085c0,-0.052 0.01,-0.093 0.029,-0.123c0.019,-0.03 0.047,-0.051 0.083,-0.064c0.036,-0.013 0.078,-0.019 0.127,-0.019c0.022,0 0.048,0.001 0.076,0.004c0.028,0.002 0.056,0.005 0.084,0.009c0.027,0.003 0.051,0.007 0.071,0.01l-0.007,0.11c-0.02,-0.002 -0.043,-0.005 -0.069,-0.007c-0.026,-0.002 -0.052,-0.004 -0.078,-0.006c-0.026,-0.002 -0.047,-0.003 -0.065,-0.003c-0.025,0 -0.046,0.003 -0.062,0.008c-0.017,0.005 -0.029,0.014 -0.037,0.025c-0.008,0.011 -0.012,0.025 -0.012,0.043c0,0.02 0.004,0.035 0.012,0.046c0.008,0.011 0.021,0.019 0.041,0.026c0.019,0.007 0.045,0.014 0.078,0.021c0.04,0.009 0.073,0.018 0.101,0.028c0.028,0.01 0.05,0.022 0.067,0.036c0.017,0.014 0.03,0.032 0.038,0.054c0.008,0.022 0.012,0.05 0.012,0.083c0,0.053 -0.009,0.096 -0.028,0.128c-0.019,0.032 -0.046,0.056 -0.082,0.07c-0.036,0.014 -0.078,0.022 -0.128,0.022Z" style="fill:#c75c2a;fill-rule:nonzero;"/></g><g transform="matrix(151.287199,0,0,151.287199,91.856913,105.533679)"></g></g></svg>